# xmcd
#
# Track frame offsets:
#  150
#  19956
#  38838
#  56978
#  82829
#  98435
#  120573
#  148378
#  163454
#  180491
#  197539
#  219890
#  237205
#  252467
#  274596
#  296253
#  314336
#
# Disc length: 4563 seconds
#
# Revision: 0
# Processed by: cddbd v1.4PL0 Copyright (c) Steve Scherf et al.
# Submitted via: AltoMP3_Maker 3.0
#
DISCID=f011d111
DTITLE=Varios - varios
DYEAR=1900
DGENRE=
TTITLE0=amigos
TTITLE1=disco 2
TTITLE2=disco 3
TTITLE3=disco 4
TTITLE4=disco 5
TTITLE5=disco6
TTITLE6=disco 7
TTITLE7=disco 8
TTITLE8=disco 9
TTITLE9=disco 10 
TTITLE10=disco 11
TTITLE11=disco 12
TTITLE12=disco 13
TTITLE13=disco 14
TTITLE14=disco 15
TTITLE15=disco 16
TTITLE16=disco 17
EXTD=
EXTT0=
EXTT1=
EXTT2=
EXTT3=
EXTT4=
EXTT5=
EXTT6=
EXTT7=
EXTT8=
EXTT9=
EXTT10=
EXTT11=
EXTT12=
EXTT13=
EXTT14=
EXTT15=
EXTT16=
PLAYORDER=
